{"title":"M:I III(2006)MPEG-4[DaScubaDude]","uid":15537032,"size":1381205476,"categoryP":"video","categoryS":"movies","magnet":"?xt=urn:btih:8fb3e223e5f3db8497ed2d76af5e8c3378eeea19&amp;dn=M%3AI+III%282006%29MPEG-4%5BDaScubaDude%5D&amp;tr=udp%3A%2F%2Ftracker.leechers-paradise.org%3A6969&amp;tr=udp%3A%2F%2Fzer0day.ch%3A1337&amp;tr=udp%3A%2F%2Fopen.demonii.com%3A1337&amp;tr=udp%3A%2F%2Ftracker.coppersurfer.tk%3A6969&amp;tr=udp%3A%2F%2Fexodus.desync.com%3A6969","seeders":0,"leechers":0,"uploader":"dascuba","files":1,"time":1470885575,"description":"Mission: Impossible III (2006)\r\nPG-13 | 2h 6min | Action, Adventure, Thriller | 5 May 2006 (USA)\r\nAgent Ethan Hunt comes into conflict with a dangerous and sadistic arms dealer who threatens his life and his fianceé in response .\r\nDirector: J.J. Abrams\r\nWriters: Alex Kurtzman, Roberto Orci |\r\nStars: Tom Cruise, Michelle Monaghan, Ving Rhames | \r\n\r\nGeneral\r\nComplete name                            : MI IIIMI3_DOMESTIC_D1_WS_Title1.mp4\r\nFormat                                   : MPEG-4\r\nFormat profile                           : Base Media\r\nCodec ID                                 : isom (isom/iso2/avc1/mp41)\r\nFile size                                : 1.29 GiB\r\nDuration                                 : 2h 5mn\r\nOverall bit rate                         : 1 470 Kbps\r\nMovie name                               : MI3_DOMESTIC_D1_WS\r\nGenre                                    : Action\r\nWriting application                      : Lavf54.6.100\r\n\r\nVideo\r\nID                                       : 1\r\nFormat                                   : AVC\r\nFormat/Info                              : Advanced Video Codec\r\nFormat profile                           :   \r\nFormat settings, CABAC                   : No\r\nFormat settings, ReFrames                : 6 frames\r\nFormat settings, GOP                     : M=1, N=60\r\nCodec ID                                 : avc1\r\nCodec ID/Info                            : Advanced Video Coding\r\nDuration                                 : 2h 5mn\r\nBit rate                                 : 1 207 Kbps\r\nWidth                                    : 720 pixels\r\nHeight                                   : 404 pixels\r\nDisplay aspect ratio                     : 16:9\r\nFrame rate mode                          : Constant\r\nFrame rate                               : 29.970 (30000/1001) fps\r\nColor space                              : YUV\r\nChroma subsampling                       : 4:2:0\r\nBit depth                                : 8 bits\r\nScan type                                : Progressive\r\nBits/(Pixel*Frame)                       : 0.138\r\nStream size                              : 1.06 GiB (82%)\r\n\r\nAudio\r\nID                                       : 2\r\nFormat                                   : AAC\r\nFormat/Info                              : Advanced Audio Codec\r\nFormat profile                           : LC\r\nCodec ID                                 : 40\r\nDuration                                 : 2h 5mn\r\nBit rate mode                            : Constant\r\nBit rate                                 : 256 Kbps\r\nChannel(s)                               : 2 channels\r\nChannel(s)_Original                      : 6 channels\r\nChannel positions                        : Front: L C R, Side: L R, LFE\r\nSampling rate                            : 44.1 KHz\r\nFrame rate                               : 43.066 fps (1024 spf)\r\nCompression mode                         : Lossy\r\nStream size                              : 229 MiB (17%)\r\nDefault                                  : Yes\r\nAlternate group                          : 1","torrent":{"xt":"urn:btih:8fb3e223e5f3db8497ed2d76af5e8c3378eeea19","amp;dn":"M%3AI+III%282006%29MPEG-4%5BDaScubaDude%5D","amp;tr":["udp%3A%2F%2Ftracker.leechers-paradise.org%3A6969","udp%3A%2F%2Fzer0day.ch%3A1337","udp%3A%2F%2Fopen.demonii.com%3A1337","udp%3A%2F%2Ftracker.coppersurfer.tk%3A6969","udp%3A%2F%2Fexodus.desync.com%3A6969"],"infoHash":"8fb3e223e5f3db8497ed2d76af5e8c3378eeea19","infoHashBuffer":{"type":"Buffer","data":[143,179,226,35,229,243,219,132,151,237,45,118,175,94,140,51,120,238,234,25]},"announce":[],"urlList":[]}}